<svg width="14" height="13" viewBox="0 0 14 13" fill="none" xmlns="http://www.w3.org/2000/svg">
<path d="M2.98633 12.8281C3.22656 13.0156 3.53125 12.9512 3.89453 12.6875L6.99414 10.4082L10.0996 12.6875C10.4629 12.9512 10.7617 13.0156 11.0078 12.8281C11.248 12.6465 11.3008 12.3477 11.1543 11.9258L9.92969 8.27539L13.0586 6.03125C13.4219 5.77344 13.5684 5.49805 13.4746 5.21094C13.3809 4.92383 13.1055 4.7832 12.6543 4.78906L8.81641 4.81836L7.65039 1.15039C7.50977 0.722656 7.29883 0.5 6.99414 0.5C6.69531 0.5 6.48438 0.722656 6.34375 1.15039L5.17773 4.81836L1.33984 4.78906C0.888672 4.7832 0.613281 4.92383 0.519531 5.21094C0.419922 5.49805 0.572266 5.77344 0.935547 6.03125L4.06445 8.27539L2.83984 11.9258C2.69336 12.3477 2.74609 12.6465 2.98633 12.8281Z" fill="#FFB423"/>
</svg>
