<svg width="496" height="496" viewBox="0 0 496 496" fill="none" xmlns="http://www.w3.org/2000/svg">
<path d="M248 496C384.967 496 496 384.967 496 248C496 111.033 384.967 0 248 0C111.033 0 0 111.033 0 248C0.154 384.903 111.097 495.846 248 496ZM248 16C376.13 16 480 119.87 480 248C480 376.13 376.13 480 248 480C119.87 480 16 376.13 16 248C16.145 119.93 119.93 16.145 248 16Z" fill="url(#paint0_linear)"/>
<path d="M153.161 346H342.839C344.585 346 346 344.585 346 342.839V153.161C346 151.415 344.585 150 342.839 150H153.161C151.415 150 150 151.415 150 153.161V342.839C150 344.585 151.415 346 153.161 346ZM156.323 156.323H339.677V339.677H156.323V156.323Z" fill="url(#paint1_linear)"/>
<defs>
<linearGradient id="paint0_linear" x1="43.4912" y1="452.49" x2="495.843" y2="0.178395" gradientUnits="userSpaceOnUse">
<stop stop-color="#003F8A"/>
<stop offset="0.518" stop-color="#00D7DF"/>
<stop offset="1" stop-color="#006DF0"/>
</linearGradient>
<linearGradient id="paint1_linear" x1="157.592" y1="338.409" x2="378.747" y2="117.251" gradientUnits="userSpaceOnUse">
<stop stop-color="#003F8A"/>
<stop offset="0.518" stop-color="#00D7DF"/>
<stop offset="1" stop-color="#006DF0"/>
</linearGradient>
</defs>
</svg>
