<svg width="512" height="512" viewBox="0 0 512 512" fill="none" xmlns="http://www.w3.org/2000/svg">
<path d="M297.536 234.464L445.324 234.464C456.37 234.464 465.324 225.51 465.324 214.464C465.324 203.418 456.37 194.464 445.324 194.464L345.821 194.464L506.142 34.1419C513.953 26.3309 513.953 13.6679 506.142 5.85789C498.332 -1.95211 485.669 -1.95311 477.858 5.85789L317.536 166.18L317.536 66.6769C317.536 55.6309 308.582 46.6769 297.536 46.6769C286.49 46.6769 277.536 55.6309 277.536 66.6769L277.536 214.464C277.536 225.349 286.382 234.464 297.536 234.464Z" fill="black"/>
<path d="M5.85835 506.142C13.6694 513.952 26.3323 513.953 34.1423 506.142L194.464 345.82L194.464 445.323C194.464 456.369 203.418 465.323 214.464 465.323C225.51 465.323 234.464 456.369 234.464 445.323L234.464 297.536C234.464 286.67 225.611 277.536 214.464 277.536L66.6763 277.536C55.6303 277.536 46.6763 286.49 46.6763 297.536C46.6763 308.582 55.6303 317.536 66.6763 317.536L166.18 317.536L5.85835 477.858C-1.95265 485.669 -1.95265 498.332 5.85835 506.142Z" fill="black"/>
</svg>
