<svg width="13" height="13" viewBox="0 0 13 13" fill="none" xmlns="http://www.w3.org/2000/svg">
<path d="M6.5 12.7461C9.76953 12.7461 12.4766 10.0391 12.4766 6.76953C12.4766 3.50586 9.76367 0.792969 6.49414 0.792969C3.23047 0.792969 0.523438 3.50586 0.523438 6.76953C0.523438 10.0391 3.23633 12.7461 6.5 12.7461ZM5.69727 9.77539C5.49805 9.77539 5.33984 9.6875 5.17578 9.48828L3.48242 7.40234C3.39453 7.29102 3.3418 7.15039 3.3418 7.02148C3.3418 6.74609 3.55859 6.53516 3.82227 6.53516C3.98633 6.53516 4.13281 6.59961 4.26758 6.78125L5.66797 8.5918L8.39258 4.22656C8.50391 4.04492 8.65625 3.95703 8.81445 3.95703C9.07227 3.95703 9.31836 4.12695 9.31836 4.4082C9.31836 4.53711 9.24219 4.67773 9.17188 4.79492L6.18945 9.48828C6.06055 9.68164 5.89648 9.77539 5.69727 9.77539Z" fill="black"/>
</svg>
